<?xml version="1.0" encoding="UTF-8"?>
<!DOCTYPE svg PUBLIC "-//W3C//DTD SVG 1.1//EN" "http://www.w3.org/Graphics/SVG/1.1/DTD/svg11.dtd">
<svg xmlns="http://www.w3.org/2000/svg" version="1.1" width="474px" height="110px" style="shape-rendering:geometricPrecision; text-rendering:geometricPrecision; image-rendering:optimizeQuality; fill-rule:evenodd; clip-rule:evenodd" xmlns:xlink="http://www.w3.org/1999/xlink">
<g><path style="opacity:0.973" fill="#4e8be9" d="M 312.5,4.5 C 323.808,4.792 327.308,10.1253 323,20.5C 317.215,26.6187 311.215,26.952 305,21.5C 302.567,13.6966 305.067,8.02995 312.5,4.5 Z"/></g>
<g><path style="opacity:1" fill="#065ce8" d="M 425.5,4.5 C 435.87,4.70225 439.37,9.70225 436,19.5C 430.219,26.4718 423.885,27.1384 417,21.5C 414.725,13.2756 417.559,7.60895 425.5,4.5 Z"/></g>
<g><path style="opacity:1" fill="#f2f2f2" d="M 58.5,69.5 C 60.3322,75.0084 61.9989,80.675 63.5,86.5C 54.8839,98.6594 43.8839,101.659 30.5,95.5C 30.0269,94.0937 29.0269,93.427 27.5,93.5C 23.7549,89.4955 21.7549,84.6621 21.5,79C 23.2226,67.832 24.8893,56.6653 26.5,45.5C 23.8806,45.7683 21.3806,45.435 19,44.5C 18.7042,40.1084 19.5375,35.9417 21.5,32C 24.146,31.5026 26.8127,31.3359 29.5,31.5C 29.638,26.364 30.4713,21.364 32,16.5C 32.5,16 33,15.5 33.5,15C 39.0838,14.1944 44.5838,14.3611 50,15.5C 50.3151,20.8383 50.1484,26.1717 49.5,31.5C 52.8984,31.1796 56.2317,31.513 59.5,32.5C 60.0952,36.767 59.4285,40.9337 57.5,45C 53.8484,45.4986 50.1817,45.6653 46.5,45.5C 44.3452,56.7539 43.1785,68.0873 43,79.5C 45.4356,83.0963 48.2689,83.2629 51.5,80C 54.2289,76.6925 56.5623,73.1925 58.5,69.5 Z"/></g>
<g><path style="opacity:1" fill="#a1c1f1" d="M 181.5,64.5 C 180.57,74.4149 178.904,84.0816 176.5,93.5C 172.388,96.9598 167.554,98.6264 162,98.5C 148.661,98.1615 141.495,91.3282 140.5,78C 142.188,69.1015 144.188,60.2681 146.5,51.5C 146.43,50.2284 146.097,49.0617 145.5,48C 143.254,46.9605 141.087,45.7938 139,44.5C 137.967,52.6319 136.3,60.6319 134,68.5C 133.392,70.0664 132.558,71.3998 131.5,72.5C 131.631,71.6236 131.298,70.9569 130.5,70.5C 127.029,69.3469 123.696,68.0135 120.5,66.5C 123.586,59.0095 125.252,51.1762 125.5,43C 123.908,36.9135 123.408,30.7468 124,24.5C 127.911,18.1059 132.911,17.1059 139,21.5C 139.993,24.308 140.827,27.1413 141.5,30C 148.336,33.3895 155.336,36.3895 162.5,39C 164.286,39.7845 165.786,40.9512 167,42.5C 167.667,45.5 167.667,48.5 167,51.5C 164.85,59.4341 163.016,67.4341 161.5,75.5C 162.175,82.6691 165.508,84.1691 171.5,80C 175.516,75.1755 178.849,70.0089 181.5,64.5 Z"/></g>
<g><path style="opacity:1" fill="#cbd9f2" d="M 120.5,66.5 C 123.696,68.0135 127.029,69.3469 130.5,70.5C 131.298,70.9569 131.631,71.6236 131.5,72.5C 118.73,95.5451 99.7305,103.045 74.5,95C 70.7345,92.1379 67.0678,89.3046 63.5,86.5C 61.9989,80.675 60.3322,75.0084 58.5,69.5C 63.0711,41.4186 79.4044,29.2519 107.5,33C 117.048,37.6 120.548,45.1 118,55.5C 113.54,65.2879 106.04,71.4546 95.5,74C 91.2054,74.9119 86.8721,75.5785 82.5,76C 84.2985,78.4725 86.6318,80.1392 89.5,81C 102.958,82.6018 113.292,77.7685 120.5,66.5 Z M 93.5,48.5 C 100.998,48.1699 102.831,51.1699 99,57.5C 93.7426,62.3608 87.576,64.8608 80.5,65C 82.4383,57.5671 86.7717,52.0671 93.5,48.5 Z"/></g>
<g><path style="opacity:0.984" fill="#7aa9f3" d="M 297.5,62.5 C 295.449,71.4411 295.116,80.4411 296.5,89.5C 289.933,97.1898 281.6,100.023 271.5,98C 264.667,96.5 260.5,92.3333 259,85.5C 258.187,75.3744 259.02,65.3744 261.5,55.5C 261.198,50.3614 258.865,48.8614 254.5,51C 246.644,58.205 241.477,67.0384 239,77.5C 237.665,83.5285 236.331,89.5285 235,95.5C 234.25,96.1258 233.416,96.6258 232.5,97C 227.833,97.6667 223.167,97.6667 218.5,97C 217.056,95.874 216.39,94.374 216.5,92.5C 218.361,79.9707 220.361,67.4707 222.5,55C 221.16,48.9907 218.16,47.9907 213.5,52C 206.8,58.8956 202.3,67.0623 200,76.5C 198.573,82.8241 197.24,89.1574 196,95.5C 195.25,96.1258 194.416,96.6258 193.5,97C 188.833,97.6667 184.167,97.6667 179.5,97C 178.186,96.015 177.186,94.8484 176.5,93.5C 178.904,84.0816 180.57,74.4149 181.5,64.5C 183.224,54.4885 185.058,44.4885 187,34.5C 193.076,33.5236 199.242,33.1903 205.5,33.5C 205.5,35.5 205.5,37.5 205.5,39.5C 204.596,40.209 204.263,41.209 204.5,42.5C 204.833,43.8333 205.167,43.8333 205.5,42.5C 206.167,42.5 206.5,42.1667 206.5,41.5C 212.851,33.3317 221.184,30.165 231.5,32C 238.047,34.5832 241.547,39.4165 242,46.5C 248.43,35.7014 257.93,30.8681 270.5,32C 277.04,34.5638 280.54,39.3972 281,46.5C 280.831,55.8637 279.997,65.197 278.5,74.5C 278.016,81.3871 280.683,83.3871 286.5,80.5C 291.209,75.0706 294.876,69.0706 297.5,62.5 Z"/></g>
<g><path style="opacity:1" fill="#2778f2" d="M 409.5,63.5 C 406.621,72.6756 406.954,81.6756 410.5,90.5C 406.889,92.6437 403.222,94.8104 399.5,97C 393.167,99 386.833,99 380.5,97C 373.698,92.801 370.365,86.6343 370.5,78.5C 372.433,69.5778 373.267,60.5778 373,51.5C 372.333,50.8333 371.667,50.1667 371,49.5C 365.498,51.4786 361.498,55.1453 359,60.5C 352.922,71.4002 349.256,83.0669 348,95.5C 345.072,97.0377 341.906,97.7044 338.5,97.5C 336.167,97.3333 333.833,97.1667 331.5,97C 330.584,96.7216 329.918,96.2216 329.5,95.5C 330.086,85.0673 331.419,74.734 333.5,64.5C 334.782,54.8102 336.282,45.1436 338,35.5C 338.5,35 339,34.5 339.5,34C 345.167,33.3333 350.833,33.3333 356.5,34C 357.346,36.7823 357.513,39.6157 357,42.5C 365.174,32.104 375.341,29.2706 387.5,34C 389.969,36.4411 391.802,39.2744 393,42.5C 392.949,55.1825 392.616,67.8492 392,80.5C 393.878,82.6975 396.045,82.8642 398.5,81C 403.33,75.8273 406.997,69.994 409.5,63.5 Z"/></g>
<g><path style="opacity:0.973" fill="#5191f3" d="M 333.5,64.5 C 331.419,74.734 330.086,85.0673 329.5,95.5C 328.883,95.3893 328.383,95.056 328,94.5C 319.218,99.5878 310.385,99.7545 301.5,95C 299.7,93.1881 298.033,91.3548 296.5,89.5C 295.116,80.4411 295.449,71.4411 297.5,62.5C 298.243,53.0441 299.743,43.7107 302,34.5C 308.076,33.5236 314.242,33.1903 320.5,33.5C 319.546,44.8927 318.046,56.226 316,67.5C 315.333,71.8333 315.333,76.1667 316,80.5C 317.96,82.8985 320.126,83.0652 322.5,81C 324,79.5 325.5,78 327,76.5C 328.941,72.2784 331.108,68.2784 333.5,64.5 Z"/></g>
<g><path style="opacity:1" fill="#0360f3" d="M 410.5,90.5 C 406.954,81.6756 406.621,72.6756 409.5,63.5C 410.674,54.1202 412.174,44.7869 414,35.5C 416.894,34.2203 420.061,33.5536 423.5,33.5C 426.5,33.6667 429.5,33.8333 432.5,34C 433.059,34.7247 433.392,35.5581 433.5,36.5C 431.229,49.2898 429.229,62.1231 427.5,75C 428.435,83.3767 431.935,84.5433 438,78.5C 441.231,73.2037 444.065,67.7037 446.5,62C 450.402,61.2617 454.068,61.9283 457.5,64C 456.213,79.8577 448.213,91.191 433.5,98C 424.01,100.547 416.344,98.0467 410.5,90.5 Z"/></g>
<g><path style="opacity:0.004" fill="#141922" d="M 205.5,39.5 C 205.328,40.4916 205.662,41.1583 206.5,41.5C 206.5,42.1667 206.167,42.5 205.5,42.5C 205.167,42.5 204.833,42.5 204.5,42.5C 204.263,41.209 204.596,40.209 205.5,39.5 Z"/></g>
<g><path style="opacity:0.918" fill="#767676" d="M 27.5,93.5 C 29.0269,93.427 30.0269,94.0937 30.5,95.5C 28.9731,95.573 27.9731,94.9063 27.5,93.5 Z"/></g>
</svg>
