<?xml version="1.0" encoding="UTF-8"?>
<svg version="1.1" xmlns="http://www.w3.org/2000/svg" width="461" height="116">
<path d="M0 0 C1.37376679 0.00398964 2.74753489 0.01873698 4.12109375 0.04296875 C4.81912109 0.04361328 5.51714844 0.04425781 6.23632812 0.04492188 C11.41828217 0.09015717 11.41828217 0.09015717 12.55859375 1.23046875 C12.89102454 5.9627188 12.7475265 10.62335433 11.55859375 15.23046875 C13.47671875 15.16859375 13.47671875 15.16859375 15.43359375 15.10546875 C17.61328125 15.03515625 17.61328125 15.03515625 19.55859375 15.23046875 C21.55859375 17.23046875 21.55859375 17.23046875 21.60546875 19.54296875 C21.5075 20.42984375 21.40953125 21.31671875 21.30859375 22.23046875 C21.2209375 23.11734375 21.13328125 24.00421875 21.04296875 24.91796875 C20.55859375 27.23046875 20.55859375 27.23046875 18.55859375 29.23046875 C16.17578125 29.42578125 16.17578125 29.42578125 13.43359375 29.35546875 C12.52351563 29.33742188 11.6134375 29.319375 10.67578125 29.30078125 C9.97710937 29.27757813 9.2784375 29.254375 8.55859375 29.23046875 C8.48511719 30.23013672 8.48511719 30.23013672 8.41015625 31.25 C8.0111941 36.16824028 7.47092669 40.95337261 6.49609375 45.79296875 C5.52286132 50.88597453 4.87020566 56.0574347 5.55859375 61.23046875 C6.21859375 61.89046875 6.87859375 62.55046875 7.55859375 63.23046875 C9.9877924 63.36487653 9.9877924 63.36487653 12.55859375 62.23046875 C17.75605882 56.90925451 20.29299976 51.61053994 21.93359375 44.35546875 C24.36396447 34.26008266 30.24146449 26.4280349 38.93359375 20.65234375 C47.29224301 15.86811687 56.56924074 14.33413266 66.078125 16.9140625 C70.43565878 18.9220274 74.64471659 21.70358123 76.55859375 26.23046875 C77.67818616 32.70872099 77.54377358 38.53005133 74.05859375 44.23046875 C66.53364199 53.87512524 55.07194144 56.43150817 43.55859375 58.23046875 C47.49207344 61.963941 49.97521274 62.77806197 55.37109375 62.73046875 C64.48868468 62.43543188 69.82002375 59.7559793 76.01953125 53.16015625 C81.38198563 46.43667283 82.73162434 39.80097956 82.515625 31.3203125 C82.4837207 29.3412793 82.4837207 29.3412793 82.45117188 27.32226562 C82.41401725 25.23939221 82.37079211 23.157327 82.31176758 21.07495117 C82.25723563 19.05298262 82.2298283 17.03034 82.203125 15.0078125 C82.16215698 13.20171509 82.16215698 13.20171509 82.12036133 11.35913086 C82.64400544 7.62069115 83.60610718 6.4966813 86.55859375 4.23046875 C89.3393862 3.39405852 91.75952152 3.4644675 94.55859375 4.23046875 C96.9934262 6.98567389 98.26334887 9.29424581 99.36523438 12.78833008 C100.88495268 15.8983428 102.09707087 16.3617694 105.27734375 17.6171875 C106.20933594 17.99810547 107.14132813 18.37902344 108.1015625 18.77148438 C109.07738281 19.14982422 110.05320312 19.52816406 111.05859375 19.91796875 C112.98729046 20.68868309 114.91445575 21.46324422 116.83984375 22.2421875 C117.69642578 22.57694092 118.55300781 22.91169434 119.43554688 23.2565918 C121.55859375 24.23046875 121.55859375 24.23046875 123.55859375 26.23046875 C124.12534327 33.35419531 122.36657818 39.30919901 120.3359375 46.07617188 C118.74950801 51.64680572 118.23859217 56.43044006 118.55859375 62.23046875 C118.88859375 62.56046875 119.21859375 62.89046875 119.55859375 63.23046875 C122.88029645 63.23046875 125.47194176 63.0631322 128.1796875 60.98828125 C135.8906906 52.61633503 138.34030775 42.13569086 139.74609375 31.16796875 C140.0448593 28.94693295 140.35049445 26.72680686 140.6640625 24.5078125 C140.85198364 23.05749634 140.85198364 23.05749634 141.04370117 21.57788086 C141.55859375 19.23046875 141.55859375 19.23046875 143.55859375 17.23046875 C146.12151692 17.05883144 148.56205232 16.99782317 151.12109375 17.04296875 C151.81912109 17.04361328 152.51714844 17.04425781 153.23632812 17.04492188 C158.41828217 17.09015717 158.41828217 17.09015717 159.55859375 18.23046875 C159.92620106 20.55864839 160.26100956 22.89230725 160.55859375 25.23046875 C161.07808594 24.74835937 161.59757813 24.26625 162.1328125 23.76953125 C162.83019531 23.13789062 163.52757812 22.50625 164.24609375 21.85546875 C164.93058594 21.22898437 165.61507812 20.6025 166.3203125 19.95703125 C172.11140141 15.48990857 178.49935982 15.32175978 185.55859375 16.23046875 C189.04099801 17.68711645 190.92461714 19.91636397 192.578125 23.34375 C193.32866711 25.27322584 193.95446305 27.25026256 194.55859375 29.23046875 C194.95949219 28.71097656 195.36039063 28.19148438 195.7734375 27.65625 C200.62422131 21.70551521 205.54751867 16.94633662 213.40234375 15.82421875 C218.46443353 15.66092553 222.65652462 15.68313317 226.55859375 19.23046875 C231.04449969 24.52217631 231.0886332 28.68460371 230.87109375 35.29296875 C230.86142578 36.17791016 230.85175781 37.06285156 230.84179688 37.97460938 C230.76884002 42.20293486 230.44088701 46.08938263 229.55859375 50.23046875 C229.49262025 52.33370409 229.4729713 54.43882599 229.49609375 56.54296875 C229.50511719 57.61160156 229.51414062 58.68023437 229.5234375 59.78125 C229.53503906 60.58949219 229.54664063 61.39773437 229.55859375 62.23046875 C231.80735122 63.09897049 231.80735122 63.09897049 234.55859375 63.23046875 C240.96204126 59.2928264 244.15178559 52.40186411 246.08300781 45.30273438 C247.13833003 40.64837591 247.85963368 35.94962196 248.55859375 31.23046875 C248.90765997 28.93801964 249.26127017 26.64625401 249.62109375 24.35546875 C249.75644531 23.40929687 249.89179688 22.463125 250.03125 21.48828125 C250.55859375 19.23046875 250.55859375 19.23046875 252.55859375 17.23046875 C255.12151692 17.05883144 257.56205232 16.99782317 260.12109375 17.04296875 C260.81912109 17.04361328 261.51714844 17.04425781 262.23632812 17.04492188 C267.41828217 17.09015717 267.41828217 17.09015717 268.55859375 18.23046875 C268.50825776 25.66761138 267.31286265 32.93610967 265.99609375 40.23046875 C264.65878866 47.66720896 264.19742754 54.65935486 264.55859375 62.23046875 C266.79842875 63.18067291 266.79842875 63.18067291 269.55859375 63.23046875 C282.15728439 53.12111216 283.30881155 36.40687374 285.07543945 21.53027344 C285.55859375 19.23046875 285.55859375 19.23046875 287.55859375 17.23046875 C290.74609375 16.96484375 290.74609375 16.96484375 294.55859375 16.98046875 C295.81671875 16.9753125 297.07484375 16.97015625 298.37109375 16.96484375 C301.55859375 17.23046875 301.55859375 17.23046875 303.55859375 19.23046875 C303.68359375 22.85546875 303.68359375 22.85546875 303.55859375 26.23046875 C303.99429687 25.75996094 304.43 25.28945313 304.87890625 24.8046875 C310.41630788 19.0155858 314.39533141 16.10686735 322.62109375 15.85546875 C327.19237806 15.82016926 329.95686426 16.33252548 333.55859375 19.23046875 C337.40158872 24.51376847 338.12828612 28.36315948 337.87109375 34.79296875 C337.86142578 35.52193359 337.85175781 36.25089844 337.84179688 37.00195312 C337.75535823 41.17731555 337.24650939 45.10852262 336.55859375 49.23046875 C336.49336502 51.52130164 336.47270965 53.81382669 336.49609375 56.10546875 C336.50962891 57.83410156 336.50962891 57.83410156 336.5234375 59.59765625 C336.53503906 60.46648437 336.54664063 61.3353125 336.55859375 62.23046875 C338.93932856 62.88809597 338.93932856 62.88809597 341.55859375 63.23046875 C347.9661348 58.79447879 351.56359052 50.85939684 353.16503906 43.40917969 C353.92547651 39.14886551 354.59852699 34.88516299 355.17797852 30.59643555 C355.38765259 29.08690308 355.38765259 29.08690308 355.6015625 27.546875 C355.7152417 26.64396729 355.8289209 25.74105957 355.94604492 24.81079102 C356.66415536 21.78579729 357.69634066 19.71742787 359.55859375 17.23046875 C362.87890625 16.70703125 362.87890625 16.70703125 366.68359375 16.85546875 C367.94429688 16.88898437 369.205 16.9225 370.50390625 16.95703125 C373.55859375 17.23046875 373.55859375 17.23046875 374.55859375 18.23046875 C375.25734401 25.8903153 373.89510938 33.3420836 372.55859375 40.85546875 C370.69727762 50.98210417 370.69727762 50.98210417 370.55859375 61.23046875 C371.21859375 61.89046875 371.87859375 62.55046875 372.55859375 63.23046875 C376.12016294 63.23046875 377.40601483 62.37522311 379.99609375 59.91796875 C383.64503049 55.18829598 386.0263294 49.60826726 388.55859375 44.23046875 C396.30859375 45.10546875 396.30859375 45.10546875 398.55859375 46.23046875 C398.21552051 56.69420263 393.46500838 64.95326733 386.421875 72.57421875 C380.87030482 77.50894779 374.08111148 79.61182626 366.71484375 79.515625 C361.00023562 78.75988878 356.2578166 75.54622874 352.55859375 71.23046875 C352.06230469 71.64039062 351.56601562 72.0503125 351.0546875 72.47265625 C345.00230103 77.27322085 339.37950136 79.77468118 331.54296875 79.546875 C326.83159998 78.79565281 323.49781139 76.22045491 320.24609375 72.79296875 C314.7891343 64.50647476 316.22430861 56.31732709 318.11328125 46.9921875 C318.80013506 42.73248884 318.72651741 38.5311802 318.55859375 34.23046875 C315.81395935 33.64270241 315.81395935 33.64270241 312.55859375 34.23046875 C302.58793514 43.140419 297.25966068 58.28444368 295.99609375 71.29296875 C295.55859375 75.23046875 295.55859375 75.23046875 293.55859375 77.23046875 C290.87293118 77.40288887 288.30338315 77.46279153 285.62109375 77.41796875 C284.52764648 77.41700195 284.52764648 77.41700195 283.41210938 77.41601562 C280.20929304 77.38959459 277.61579965 77.24953738 274.55859375 76.23046875 C273.32109375 76.94203125 273.32109375 76.94203125 272.05859375 77.66796875 C266.7515899 80.0371669 260.93745877 80.47692167 255.3984375 78.43359375 C252.45196008 76.80708817 249.6278306 74.90830467 247.55859375 72.23046875 C247.55859375 71.57046875 247.55859375 70.91046875 247.55859375 70.23046875 C247.05070312 70.62878906 246.5428125 71.02710937 246.01953125 71.4375 C239.1955403 76.68967281 234.15872619 79.8932789 225.31640625 79.65234375 C219.95417928 78.83205974 216.21227136 76.04417968 212.62109375 72.10546875 C210.32468269 68.05297865 210.424485 64.55306009 210.43359375 59.98046875 C210.43101562 58.6965625 210.4284375 57.41265625 210.42578125 56.08984375 C210.55298936 52.39332568 211.02313754 48.88590604 211.55859375 45.23046875 C211.62111867 43.25218026 211.6455274 41.27209424 211.62109375 39.29296875 C211.61207031 38.33519531 211.60304687 37.37742188 211.59375 36.390625 C211.58214844 35.67777344 211.57054687 34.96492188 211.55859375 34.23046875 C206.79741164 34.22697049 206.79741164 34.22697049 202.93359375 36.7265625 C201.31440165 38.82223561 199.91948666 40.95853365 198.55859375 43.23046875 C198.11515625 43.95363281 197.67171875 44.67679688 197.21484375 45.421875 C193.69389919 51.76601597 192.05505315 58.38411882 190.453125 65.3984375 C188.03598737 75.75307513 188.03598737 75.75307513 186.55859375 77.23046875 C184.04723271 77.33021907 181.5695596 77.36929058 179.05859375 77.35546875 C178.35605469 77.35933594 177.65351563 77.36320312 176.9296875 77.3671875 C171.68520753 77.35708253 171.68520753 77.35708253 170.55859375 76.23046875 C170.62239443 67.98423079 172.17148349 59.7265666 173.54199219 51.61401367 C174.48308573 45.77516724 174.72089225 40.14064301 174.55859375 34.23046875 C170.19279229 33.845111 170.19279229 33.845111 166.3984375 35.77734375 C157.35488558 46.25077965 153.6600913 58.82395483 151.99609375 72.41796875 C151.55859375 75.23046875 151.55859375 75.23046875 149.55859375 77.23046875 C146.97795246 77.3754486 144.50915491 77.4172442 141.93359375 77.35546875 C140.87398438 77.34193359 140.87398438 77.34193359 139.79296875 77.328125 C138.04803277 77.30454478 136.3032708 77.26867336 134.55859375 77.23046875 C134.22859375 76.24046875 133.89859375 75.25046875 133.55859375 74.23046875 C132.95273438 74.59140625 132.346875 74.95234375 131.72265625 75.32421875 C125.56471532 78.73477065 120.6005989 80.46368406 113.55859375 79.23046875 C106.91607651 77.14813848 102.89617433 73.31090976 99.453125 67.30078125 C96.1554873 59.668694 99.48514151 51.05553275 101.77954102 43.56396484 C102.95961712 39.67353937 103.88754092 36.35053208 103.55859375 32.23046875 C100.91859375 30.91046875 98.27859375 29.59046875 95.55859375 28.23046875 C95.59082031 29.38933594 95.62304688 30.54820313 95.65625 31.7421875 C95.63492679 45.59313386 90.07281186 57.46243634 80.80859375 67.54296875 C71.56386152 76.28507476 60.73822061 79.80946546 48.19921875 79.609375 C39.08383549 78.66067095 32.01261327 74.537806 25.55859375 68.23046875 C24.99011719 68.77316406 24.42164063 69.31585938 23.8359375 69.875 C17.0646353 76.14891105 11.53654672 79.93071392 2.05078125 79.5703125 C-3.68705898 78.78787974 -7.90560272 76.47083134 -11.44140625 71.85546875 C-17.87689547 59.85709902 -11.76698376 41.77683571 -9.44140625 29.23046875 C-10.41078125 29.25109375 -11.38015625 29.27171875 -12.37890625 29.29296875 C-15.44140625 29.23046875 -15.44140625 29.23046875 -16.44140625 28.23046875 C-16.609375 26.26953125 -16.609375 26.26953125 -16.62890625 23.85546875 C-16.64308594 23.06398438 -16.65726563 22.2725 -16.671875 21.45703125 C-16.44140625 19.23046875 -16.44140625 19.23046875 -14.44140625 16.23046875 C-10.81640625 15.54296875 -10.81640625 15.54296875 -7.44140625 15.23046875 C-7.32023437 14.31523437 -7.1990625 13.4 -7.07421875 12.45703125 C-6.90664063 11.26851562 -6.7390625 10.08 -6.56640625 8.85546875 C-6.40398438 7.67210937 -6.2415625 6.48875 -6.07421875 5.26953125 C-5.16886448 0.9215953 -4.45632175 0.29843698 0 0 Z M43.62109375 39.73046875 C42.41807295 42.56110592 41.91300417 45.18253914 41.55859375 48.23046875 C48.9395245 47.83506175 53.63795933 45.51701423 59.2734375 40.79296875 C61.42574647 38.17617972 60.79818054 35.46489046 60.55859375 32.23046875 C59.4845707 30.96377325 59.4845707 30.96377325 56.99609375 30.79296875 C51.17008786 31.53446041 47.1538602 35.17206043 43.62109375 39.73046875 Z " fill="#053581" transform="translate(38.44140625,16.76953125)"/>
<path d="M0 0 C1.37376679 0.00398964 2.74753489 0.01873698 4.12109375 0.04296875 C4.81912109 0.04361328 5.51714844 0.04425781 6.23632812 0.04492188 C11.41828217 0.09015717 11.41828217 0.09015717 12.55859375 1.23046875 C12.89102454 5.9627188 12.7475265 10.62335433 11.55859375 15.23046875 C13.47671875 15.16859375 13.47671875 15.16859375 15.43359375 15.10546875 C17.61328125 15.03515625 17.61328125 15.03515625 19.55859375 15.23046875 C21.55859375 17.23046875 21.55859375 17.23046875 21.60546875 19.54296875 C21.5075 20.42984375 21.40953125 21.31671875 21.30859375 22.23046875 C21.2209375 23.11734375 21.13328125 24.00421875 21.04296875 24.91796875 C20.55859375 27.23046875 20.55859375 27.23046875 18.55859375 29.23046875 C16.17578125 29.42578125 16.17578125 29.42578125 13.43359375 29.35546875 C12.52351563 29.33742188 11.6134375 29.319375 10.67578125 29.30078125 C9.97710937 29.27757813 9.2784375 29.254375 8.55859375 29.23046875 C8.48511719 30.23013672 8.48511719 30.23013672 8.41015625 31.25 C8.0111941 36.16824028 7.47092669 40.95337261 6.49609375 45.79296875 C5.52286132 50.88597453 4.87020566 56.0574347 5.55859375 61.23046875 C6.21859375 61.89046875 6.87859375 62.55046875 7.55859375 63.23046875 C9.9877924 63.36487653 9.9877924 63.36487653 12.55859375 62.23046875 C17.75605882 56.90925451 20.29299976 51.61053994 21.93359375 44.35546875 C24.36396447 34.26008266 30.24146449 26.4280349 38.93359375 20.65234375 C47.29224301 15.86811687 56.56924074 14.33413266 66.078125 16.9140625 C70.43565878 18.9220274 74.64471659 21.70358123 76.55859375 26.23046875 C77.67818616 32.70872099 77.54377358 38.53005133 74.05859375 44.23046875 C66.53364199 53.87512524 55.07194144 56.43150817 43.55859375 58.23046875 C47.49207344 61.963941 49.97521274 62.77806197 55.37109375 62.73046875 C63.79759013 62.45779507 68.43318469 60.53035494 74.30859375 54.60546875 C75.10523437 53.71988281 75.10523437 53.71988281 75.91796875 52.81640625 C77.7480907 51.04728837 79.14501817 50.05327861 81.55859375 49.23046875 C83.69921875 49.69140625 83.69921875 49.69140625 85.80859375 50.60546875 C86.515 50.90195313 87.22140625 51.1984375 87.94921875 51.50390625 C88.4803125 51.74367187 89.01140625 51.9834375 89.55859375 52.23046875 C89.1226757 59.20515756 83.63828946 64.42693309 78.74609375 68.91796875 C69.49521907 76.65057011 60.26424852 79.80190207 48.19921875 79.609375 C39.08383549 78.66067095 32.01261327 74.537806 25.55859375 68.23046875 C24.99011719 68.77316406 24.42164063 69.31585938 23.8359375 69.875 C17.0646353 76.14891105 11.53654672 79.93071392 2.05078125 79.5703125 C-3.68705898 78.78787974 -7.90560272 76.47083134 -11.44140625 71.85546875 C-17.87689547 59.85709902 -11.76698376 41.77683571 -9.44140625 29.23046875 C-10.41078125 29.25109375 -11.38015625 29.27171875 -12.37890625 29.29296875 C-15.44140625 29.23046875 -15.44140625 29.23046875 -16.44140625 28.23046875 C-16.609375 26.26953125 -16.609375 26.26953125 -16.62890625 23.85546875 C-16.64308594 23.06398438 -16.65726563 22.2725 -16.671875 21.45703125 C-16.44140625 19.23046875 -16.44140625 19.23046875 -14.44140625 16.23046875 C-10.81640625 15.54296875 -10.81640625 15.54296875 -7.44140625 15.23046875 C-7.32023437 14.31523437 -7.1990625 13.4 -7.07421875 12.45703125 C-6.90664063 11.26851562 -6.7390625 10.08 -6.56640625 8.85546875 C-6.40398438 7.67210937 -6.2415625 6.48875 -6.07421875 5.26953125 C-5.16886448 0.9215953 -4.45632175 0.29843698 0 0 Z M43.62109375 39.73046875 C42.41807295 42.56110592 41.91300417 45.18253914 41.55859375 48.23046875 C48.9395245 47.83506175 53.63795933 45.51701423 59.2734375 40.79296875 C61.42574647 38.17617972 60.79818054 35.46489046 60.55859375 32.23046875 C59.4845707 30.96377325 59.4845707 30.96377325 56.99609375 30.79296875 C51.17008786 31.53446041 47.1538602 35.17206043 43.62109375 39.73046875 Z " fill="#04152D" transform="translate(38.44140625,16.76953125)"/>
<path d="M0 0 C3.67505944 2.95694438 5.96819734 6.32027305 6.70556641 10.97705078 C6.80714993 13.15834432 6.77867185 15.29492256 6.69140625 17.4765625 C6.6769043 18.57000977 6.6769043 18.57000977 6.66210938 19.68554688 C6.57567073 23.8609093 6.06682189 27.79211637 5.37890625 31.9140625 C5.31367752 34.20489539 5.29302215 36.49742044 5.31640625 38.7890625 C5.32542969 39.94148438 5.33445312 41.09390625 5.34375 42.28125 C5.35535156 43.15007812 5.36695313 44.01890625 5.37890625 44.9140625 C7.75964106 45.57168972 7.75964106 45.57168972 10.37890625 45.9140625 C16.7864473 41.47807254 20.38390302 33.54299059 21.98535156 26.09277344 C22.74578901 21.83245926 23.41883949 17.56875674 23.99829102 13.2800293 C24.13807373 12.27367432 24.27785645 11.26731934 24.421875 10.23046875 C24.5923938 8.87610718 24.5923938 8.87610718 24.76635742 7.49438477 C25.48446786 4.46939104 26.51665316 2.40102162 28.37890625 -0.0859375 C31.69921875 -0.609375 31.69921875 -0.609375 35.50390625 -0.4609375 C36.76460938 -0.42742188 38.0253125 -0.39390625 39.32421875 -0.359375 C42.37890625 -0.0859375 42.37890625 -0.0859375 43.37890625 0.9140625 C44.07765651 8.57390905 42.71542188 16.02567735 41.37890625 23.5390625 C39.51759012 33.66569792 39.51759012 33.66569792 39.37890625 43.9140625 C40.03890625 44.5740625 40.69890625 45.2340625 41.37890625 45.9140625 C44.94047544 45.9140625 46.22632733 45.05881686 48.81640625 42.6015625 C52.46534299 37.87188973 54.8466419 32.29186101 57.37890625 26.9140625 C65.12890625 27.7890625 65.12890625 27.7890625 67.37890625 28.9140625 C67.03583301 39.37779638 62.28532088 47.63686108 55.2421875 55.2578125 C49.69061732 60.19254154 42.90142398 62.29542001 35.53515625 62.19921875 C29.82054812 61.44348253 25.0781291 58.22982249 21.37890625 53.9140625 C20.88261719 54.32398438 20.38632812 54.73390625 19.875 55.15625 C13.82261353 59.9568146 8.19981386 62.45827493 0.36328125 62.23046875 C-4.34808752 61.47924656 -7.68187611 58.90404866 -10.93359375 55.4765625 C-16.3905532 47.19006851 -14.95537889 39.00092084 -13.06640625 29.67578125 C-12.37955244 25.41608259 -12.45317009 21.21477395 -12.62109375 16.9140625 C-15.36572815 16.32629616 -15.36572815 16.32629616 -18.62109375 16.9140625 C-28.59175236 25.82401275 -33.92002682 40.96803743 -35.18359375 53.9765625 C-35.62109375 57.9140625 -35.62109375 57.9140625 -37.62109375 59.9140625 C-40.33330625 60.13910599 -42.9098256 60.23841245 -45.62109375 60.2265625 C-46.3584375 60.24267578 -47.09578125 60.25878906 -47.85546875 60.27539062 C-49.99609375 60.27734375 -49.99609375 60.27734375 -53.62109375 59.9140625 C-54.28109375 58.9240625 -54.94109375 57.9340625 -55.62109375 56.9140625 C-55.12609375 56.4190625 -55.12609375 56.4190625 -54.62109375 55.9140625 C-54.22626401 54.06887257 -53.88686344 52.21178074 -53.5703125 50.3515625 C-53.36833252 49.17311768 -53.16635254 47.99467285 -52.95825195 46.78051758 C-52.63667114 44.86662231 -52.63667114 44.86662231 -52.30859375 42.9140625 C-51.97637817 40.97213013 -51.97637817 40.97213013 -51.63745117 38.9909668 C-50.53097634 32.5002145 -49.46966907 26.00471259 -48.47265625 19.49609375 C-48.29645752 18.35333984 -48.12025879 17.21058594 -47.9387207 16.03320312 C-47.60672 13.85987422 -47.28211322 11.68540055 -46.96557617 9.50976562 C-46.81709229 8.53587891 -46.6686084 7.56199219 -46.515625 6.55859375 C-46.39034424 5.70628174 -46.26506348 4.85396973 -46.13598633 3.97583008 C-45.62109375 1.9140625 -45.62109375 1.9140625 -43.62109375 -0.0859375 C-40.43359375 -0.3515625 -40.43359375 -0.3515625 -36.62109375 -0.3359375 C-35.36296875 -0.34109375 -34.10484375 -0.34625 -32.80859375 -0.3515625 C-29.62109375 -0.0859375 -29.62109375 -0.0859375 -27.62109375 1.9140625 C-27.49609375 5.5390625 -27.49609375 5.5390625 -27.62109375 8.9140625 C-27.18539063 8.44355469 -26.7496875 7.97304688 -26.30078125 7.48828125 C-19.06637623 -0.07496036 -10.4831653 -4.34324881 0 0 Z " fill="#0556D5" transform="translate(369.62109375,34.0859375)"/>
<path d="M0 0 C1.8984375 0.51953125 1.8984375 0.51953125 4.2734375 3.20703125 C5.8984375 6.51953125 5.8984375 6.51953125 6.70507812 9.07739258 C8.22479643 12.1874053 9.43691462 12.6508319 12.6171875 13.90625 C13.54917969 14.28716797 14.48117188 14.66808594 15.44140625 15.06054688 C16.41722656 15.43888672 17.39304688 15.81722656 18.3984375 16.20703125 C20.32713421 16.97774559 22.2542995 17.75230672 24.1796875 18.53125 C25.03626953 18.86600342 25.89285156 19.20075684 26.77539062 19.5456543 C28.8984375 20.51953125 28.8984375 20.51953125 30.8984375 22.51953125 C31.46518702 29.64325781 29.70642193 35.59826151 27.67578125 42.36523438 C26.08935176 47.93586822 25.57843592 52.71950256 25.8984375 58.51953125 C26.2284375 58.84953125 26.5584375 59.17953125 26.8984375 59.51953125 C30.38429661 59.51953125 32.93419026 59.42692429 35.5546875 56.9609375 C36.55124448 55.73812141 37.51596454 54.48842044 38.44140625 53.2109375 C40.09323181 51.29340274 41.62906645 50.5826731 43.8984375 49.51953125 C43.72382148 52.5873541 43.51026533 55.64390909 43.2734375 58.70703125 C43.22832031 59.57134766 43.18320313 60.43566406 43.13671875 61.32617188 C42.60484417 67.63613843 42.60484417 67.63613843 40.55273438 70.20239258 C35.15729579 74.75047061 30.37256207 75.99659374 23.4609375 75.83203125 C17.89889901 75.15373387 13.68215732 72.72225897 10.0234375 68.51953125 C5.88033264 62.67044204 5.02032576 58.63820407 5.8984375 51.51953125 C6.81568122 47.58605305 7.93684471 43.71420283 9.11938477 39.85302734 C10.29946087 35.96260187 11.22738467 32.63959458 10.8984375 28.51953125 C8.2584375 27.19953125 5.6184375 25.87953125 2.8984375 24.51953125 C2.93710938 25.66550781 2.97578125 26.81148437 3.015625 27.9921875 C3.01362682 32.52505734 2.17104832 36.59041278 1.0234375 40.95703125 C0.84941406 41.67568359 0.67539063 42.39433594 0.49609375 43.13476562 C0.03354405 44.94898833 -0.52652831 46.73776473 -1.1015625 48.51953125 C-3.1015625 49.51953125 -3.1015625 49.51953125 -5.1953125 48.92578125 C-6.79947917 48.32161458 -8.40364583 47.71744792 -10.0078125 47.11328125 C-12.13567732 46.25564309 -12.13567732 46.25564309 -14.1015625 47.51953125 C-13.6684375 46.25109375 -13.6684375 46.25109375 -13.2265625 44.95703125 C-11.24304403 38.89628037 -9.85362638 33.83936258 -10.046875 27.4140625 C-10.07136719 26.10115234 -10.09585938 24.78824219 -10.12109375 23.43554688 C-10.17087051 21.37473989 -10.22712711 19.31449346 -10.29345703 17.25415039 C-10.35390255 15.24540772 -10.38823709 13.23593287 -10.421875 11.2265625 C-10.45555176 10.03522705 -10.48922852 8.8438916 -10.52392578 7.61645508 C-9.67440139 1.38742797 -5.72563162 -0.28734582 0 0 Z " fill="#052658" transform="translate(131.1015625,20.48046875)"/>
<path d="M0 0 C1.37376679 0.00398964 2.74753489 0.01873698 4.12109375 0.04296875 C4.81912109 0.04361328 5.51714844 0.04425781 6.23632812 0.04492188 C11.41828217 0.09015717 11.41828217 0.09015717 12.55859375 1.23046875 C12.89102454 5.9627188 12.7475265 10.62335433 11.55859375 15.23046875 C13.47671875 15.16859375 13.47671875 15.16859375 15.43359375 15.10546875 C17.61328125 15.03515625 17.61328125 15.03515625 19.55859375 15.23046875 C21.55859375 17.23046875 21.55859375 17.23046875 21.60546875 19.54296875 C21.5075 20.42984375 21.40953125 21.31671875 21.30859375 22.23046875 C21.2209375 23.11734375 21.13328125 24.00421875 21.04296875 24.91796875 C20.55859375 27.23046875 20.55859375 27.23046875 18.55859375 29.23046875 C16.17578125 29.42578125 16.17578125 29.42578125 13.43359375 29.35546875 C12.52351563 29.33742188 11.6134375 29.319375 10.67578125 29.30078125 C9.97710937 29.27757813 9.2784375 29.254375 8.55859375 29.23046875 C8.48511719 30.23013672 8.48511719 30.23013672 8.41015625 31.25 C8.0111941 36.16824028 7.47092669 40.95337261 6.49609375 45.79296875 C5.52286132 50.88597453 4.87020566 56.0574347 5.55859375 61.23046875 C6.21859375 61.89046875 6.87859375 62.55046875 7.55859375 63.23046875 C9.9877924 63.36487653 9.9877924 63.36487653 12.55859375 62.23046875 C14.26999844 60.26861459 15.937327 58.26744492 17.55859375 56.23046875 C19.7109375 55.0390625 19.7109375 55.0390625 21.55859375 54.23046875 C22.25947531 55.97515247 22.94383384 57.72648036 23.62109375 59.48046875 C24.00394531 60.455 24.38679688 61.42953125 24.78125 62.43359375 C25.59305429 65.35445743 25.79877478 66.50435652 24.55859375 69.23046875 C19.91319672 74.4990288 14.26035198 78.6128322 7.1796875 79.54296875 C1.18525081 79.83582673 -3.6394323 78.95705607 -8.44140625 75.23046875 C-12.63430154 71.17019545 -13.78719747 66.97674675 -14.00390625 61.23046875 C-13.63868185 50.46223981 -11.40082322 39.80141906 -9.44140625 29.23046875 C-10.41078125 29.25109375 -11.38015625 29.27171875 -12.37890625 29.29296875 C-15.44140625 29.23046875 -15.44140625 29.23046875 -16.44140625 28.23046875 C-16.609375 26.26953125 -16.609375 26.26953125 -16.62890625 23.85546875 C-16.64308594 23.06398438 -16.65726563 22.2725 -16.671875 21.45703125 C-16.44140625 19.23046875 -16.44140625 19.23046875 -14.44140625 16.23046875 C-10.81640625 15.54296875 -10.81640625 15.54296875 -7.44140625 15.23046875 C-7.32023437 14.31523437 -7.1990625 13.4 -7.07421875 12.45703125 C-6.90664063 11.26851562 -6.7390625 10.08 -6.56640625 8.85546875 C-6.40398438 7.67210937 -6.2415625 6.48875 -6.07421875 5.26953125 C-5.16886448 0.9215953 -4.45632175 0.29843698 0 0 Z " fill="#050505" transform="translate(38.44140625,16.76953125)"/>
<path d="M0 0 C1.90072266 0.02126953 1.90072266 0.02126953 3.83984375 0.04296875 C5.74443359 0.05263672 5.74443359 0.05263672 7.6875 0.0625 C10.77734375 0.23046875 10.77734375 0.23046875 11.77734375 1.23046875 C12.47609401 8.8903153 11.11385938 16.3420836 9.77734375 23.85546875 C7.91602762 33.98210417 7.91602762 33.98210417 7.77734375 44.23046875 C8.43734375 44.89046875 9.09734375 45.55046875 9.77734375 46.23046875 C13.33891294 46.23046875 14.62476483 45.37522311 17.21484375 42.91796875 C20.86378049 38.18829598 23.2450794 32.60826726 25.77734375 27.23046875 C33.52734375 28.10546875 33.52734375 28.10546875 35.77734375 29.23046875 C35.43427051 39.69420263 30.68375838 47.95326733 23.640625 55.57421875 C18.09351448 60.50498366 11.29651884 62.62161315 3.93359375 62.51171875 C-1.17893482 61.8448672 -5.07004174 59.38308326 -8.66015625 55.79296875 C-13.35867288 48.08740148 -11.2041127 37.66397095 -9.91015625 29.16796875 C-9.77552979 28.26199951 -9.64090332 27.35603027 -9.50219727 26.42260742 C-5.56615379 0.39806433 -5.56615379 0.39806433 0 0 Z " fill="#1A63F6" transform="translate(401.22265625,33.76953125)"/>
<path d="M0 0 C1.37376679 0.00398964 2.74753489 0.01873698 4.12109375 0.04296875 C4.81912109 0.04361328 5.51714844 0.04425781 6.23632812 0.04492188 C11.41828217 0.09015717 11.41828217 0.09015717 12.55859375 1.23046875 C12.50825776 8.66761138 11.31286265 15.93610967 9.99609375 23.23046875 C8.65878866 30.66720896 8.19742754 37.65935486 8.55859375 45.23046875 C10.93932856 45.88809597 10.93932856 45.88809597 13.55859375 46.23046875 C19.32662972 42.23721308 21.68499552 35.42203606 24.55859375 29.23046875 C26.23890626 34.44996811 24.82612516 39.44694338 23.93359375 44.73046875 C23.78019531 45.77589844 23.62679687 46.82132813 23.46875 47.8984375 C22.18477198 55.5532988 22.18477198 55.5532988 19.16015625 58.82421875 C18.30164063 59.28828125 17.443125 59.75234375 16.55859375 60.23046875 C15.90503906 60.63523438 15.25148438 61.04 14.578125 61.45703125 C9.90477316 63.24682557 4.14028547 63.10521778 -0.57421875 61.5078125 C-5.46016398 58.89562966 -8.69664195 55.46476165 -10.44140625 50.23046875 C-11.4745405 37.90329867 -10.05149288 26.23943878 -7.44140625 14.23046875 C-6.92193827 10.98644423 -6.43398053 7.74046421 -5.96875 4.48828125 C-5.06330499 0.61163522 -3.90835917 0.26174028 0 0 Z " fill="#0645AB" transform="translate(294.44140625,33.76953125)"/>
<path d="M0 0 C2.625 2.0625 2.625 2.0625 4 5 C4 10.30081412 2.66793215 13.22091839 -1 17 C-4.47216838 18.73608419 -8.21180127 18.59211632 -12 18 C-15.03301431 15.4848174 -15.82633819 13.90690056 -16.5625 10.0625 C-15.77590045 5.77990245 -14.03113127 4.10330106 -11 1 C-7.52445864 -0.73777068 -3.79194205 -0.58492723 0 0 Z " fill="#1D63F6" transform="translate(414,8)"/>
<path d="M0 0 C2.5625 1.5625 2.5625 1.5625 4 4 C4.56510751 7.39064503 4.76526398 9.73491416 2.94140625 12.75 C1.16550303 14.94221288 -0.45757214 16.72878607 -3 18 C-10.0521327 18.56872038 -10.0521327 18.56872038 -13.5 16.5 C-15.58277783 13.02870362 -15.78745506 9.89095441 -15 6 C-11.02445677 -0.22835106 -7.03583614 -0.87479313 0 0 Z " fill="#0545AB" transform="translate(307,8)"/>
</svg>
