<?xml version="1.0" encoding="utf-8"?>
<!-- Generator: Adobe Illustrator 28.0.0, SVG Export Plug-In . SVG Version: 6.00 Build 0)  -->
<svg version="1.1" id="Layer_1" xmlns="http://www.w3.org/2000/svg" xmlns:xlink="http://www.w3.org/1999/xlink" x="0px" y="0px"
	 viewBox="0 0 474 110" style="enable-background:new 0 0 474 110;" xml:space="preserve">
<style type="text/css">
	.st0{fill:none;}
	.st1{fill:#88AEF4;}
	.st2{fill:#427BF3;}
	.st3{fill:#D4DFF8;}
	.st4{fill:#ADC7F6;}
	.st5{fill:#FAFAFB;}
	.st6{fill:#2961F2;}
	.st7{fill:#6394F5;}
	.st8{fill:#285FED;}
	.st9{fill:#6393F4;}
	.st10{fill:#FFFFFF;}
</style>
<path class="st0" d="M0,0c156.4,0,312.8,0,474,0c0,36.3,0,72.6,0,110c-156.4,0-312.8,0-474,0C0,73.7,0,37.4,0,0z"/>
<path class="st1" d="M33,16c2.8,0,5.6,0,8.4-0.1c0.8,0,1.6,0,2.4,0c2,0,4.1,0,6.1,0.1c1,1,1,1,1.2,4.1c-0.2,4.3-1,7.8-2.2,11.9
	c0.7,0,1.4,0,2.2,0c0.9,0,1.8,0,2.8,0c1.4,0,1.4,0,2.8,0C59,32,59,32,60,33c0,1.8-0.2,3.6-0.3,5.4c-0.1,1-0.2,2-0.2,3
	C59,44,59,44,57,46c-2.6,0.2-2.6,0.2-5.6,0.1c-1.5,0-1.5,0-3-0.1c-0.8,0-1.5,0-2.3-0.1c0,0.7-0.1,1.4-0.1,2.1
	c-0.5,6.9-1.4,13.7-2.4,20.5c-1,7-1,7,1.6,13.3c3.2,0,5.3-0.3,7.6-2.6c4.6-6,7.1-11.9,8.6-19.2C63.7,49.9,70.1,42.5,79,37
	c7.9-4.3,15-6.2,24-5c6,1.8,11.9,5.5,15.2,11c2.1,5.3,1,11-1.2,16.1c-3.9,7.4-9.4,10.7-17,13.9c-0.8,0.4-1.6,0.7-2.4,1.1
	c-3,1.1-5.7,1.3-8.9,1.5c-1.1,0.1-2.1,0.1-3.2,0.2c-0.8,0-1.6,0.1-2.4,0.1c4,4.3,6,5.8,11.9,6.4c7.8-0.1,15.4-3.4,21.1-8.7
	c7.4-8.3,9.4-18.2,9.2-29.1c0-0.8,0-1.6,0-2.4c0.1-4.2,0.1-4.2-1.2-8.2c-0.4-5.3-0.4-8.6,3-13c3.2-1.6,6.5-1.6,10-1
	c2.5,2.1,2.5,2.1,4,5c0.2,3.3,0.2,3.3,0,6c0.8,0.3,1.6,0.5,2.5,0.8c4.1,1.4,8.1,3,12.2,4.6c0.8,0.3,1.5,0.6,2.3,0.9
	c7.7,3.1,7.7,3.1,10.1,6.7c0.7,5.7-0.8,10.4-2.5,15.7c-2.1,7.1-3.5,13.8-2.5,21.3c1.1,1.4,1.1,1.4,4.1,1.1c4.4-0.7,6.4-3.2,9.2-6.5
	c5-7.7,6.6-15.3,7.7-24.3c0.3-2.2,0.6-4.4,0.9-6.6c0.1-1,0.3-1.9,0.4-2.9c0.7-3.1,1.7-5.2,3.6-7.7c2.9-0.4,5.2-0.5,8.1-0.4
	c1.1,0,1.1,0,2.2,0c5.4,0.1,5.4,0.1,6.6,1.3c0.1,2.7,0,5.3,0,8c0.6-0.5,1.1-1.1,1.7-1.6c5.9-5.5,10.4-9.3,18.7-9.9
	c5.1,0.2,8.9,1.9,12.6,5.5c1.7,2.9,2.9,5.8,4,9c0.4-0.5,0.8-1,1.2-1.6c5.1-6.2,11.5-11.7,19.8-12.7c5.5-0.2,8.7,0.4,12.9,4.2
	c5.6,6.5,4.5,14.8,4,23c-0.2,1.2-0.3,2.3-0.5,3.5c-0.5,3.9-0.6,7.5-0.5,11.4c0,1,0,1,0,2.1c0,1.7,0,3.3,0,5c2.2,0.9,2.2,0.9,5,1
	c7-4.1,10.3-13,12.8-20.4c0.8-3.4,1.2-6.8,1.7-10.3c0.1-0.7,0.2-1.3,0.3-2c0.2-1.9,0.5-3.9,0.7-5.8c1.1-7,1.1-7,3.6-9.5
	c2.7-0.1,5.4-0.1,8.1-0.1c0.8,0,1.5,0,2.3,0c1.9,0,3.8,0,5.6,0c1.1,4.2,0.8,7.4,0,11.7c-0.2,1.3-0.5,2.6-0.7,3.9
	c-0.4,2-0.7,4-1.1,6.1C315,68.9,315,68.9,317,82c2.8,0.1,4.4,0,7-1c2.6-2.7,4.3-5.7,6-9c0.5-0.9,0.5-0.9,1-1.9
	c3.3-6.6,4.2-13.3,5.1-20.5c0.3-2.3,0.6-4.6,0.9-7c0.2-1.5,0.2-1.5,0.4-3.1C338,37,338,37,340,34c2.8-0.2,5.3-0.3,8.1-0.2
	c1.1,0,1.1,0,2.3,0c5.5,0.1,5.5,0.1,6.7,1.2c0.1,2.7,0,5.3,0,8c0.7,0,1.3,0,2,0c0.3-1,0.7-2,1-3c1.9-1.5,1.9-1.5,4.2-3.1
	c0.8-0.5,1.5-1,2.3-1.5c5.5-3.2,10.1-4.2,16.4-3.4c4.3,1.3,7.1,3.6,9.4,7.5c3.7,8.6,1.4,18.3,0,27.1c-1.2,7.8-1.2,7.8,0.6,15.4
	c2.3,0.4,2.3,0.4,5,0c12.9-11.4,13.8-27.4,15.5-43.5C414,36,414,36,416,34c2.7-0.2,5.3-0.2,8.1-0.2c0.7,0,1.5,0,2.3,0
	c5.5,0,5.5,0,6.7,1.2c-0.1,7.2-1.4,14.3-2.6,21.3c-1.4,8.3-1.8,16.3-1.4,24.7c2.2,1,2.2,1,5,1c5.1-3.3,7.3-6.8,9.6-12.2
	c2.8-6.4,2.8-6.4,5.4-7.8c3.5,0,5.9,1.5,9,3c0.7,8.8-4.9,17.7-10.2,24.5c-5.8,6-12.5,9.8-20.9,10.2c-5.6-0.3-9.7-1.9-13.8-5.7
	c-0.7-1-1.3-2-2-3c-2.5,1.1-4.6,2.4-6.8,4c-6,3.8-12.2,4.8-19.2,4c-5.4-1.8-8.9-5.3-12-10c-2.9-7.9-1.3-18.8,0.6-26.8
	c0.7-3.4,0.6-6.7,0.4-10.2c-2.1-1.1-2.1-1.1-5-1c-8.6,4.7-13.1,15-16.1,23.8c-1.3,4.8-2.1,9.6-2.8,14.6c-0.8,5.5-0.8,5.5-3,7.7
	c-2.7,0.1-5.4,0.2-8.1,0.1c-0.8,0-1.5,0-2.3,0c-1.9,0-3.7-0.1-5.6-0.1c-0.3-1-0.7-2-1-3c-0.5,0.3-1.1,0.6-1.6,0.8
	c-0.7,0.4-1.4,0.7-2.1,1.1c-0.7,0.4-1.4,0.7-2.1,1.1c-4.9,2.2-9.8,2.6-15.1,2c-4.6-1.7-8.3-4.9-12-8c-0.6,0.4-1.1,0.8-1.7,1.2
	C288,97.3,281,100.3,272,99c-5.8-2.1-9.3-6-12.2-11.2c-2-7.2-0.5-14.6,0.5-21.8c0.7-4.7,0.8-9.2,0.7-13.9c-2.2-1-2.2-1-5-1
	c-10.7,6.3-15,20.6-18,32c-0.6,3.2-1.1,6.4-1.5,9.7C236,95,236,95,234,97c-2.7,0.1-5.4,0.2-8.1,0.1c-0.8,0-1.5,0-2.3,0
	c-1.9,0-3.7-0.1-5.6-0.1c-1.2-4.4-0.8-7.8,0-12.2c0.2-1,0.2-1,0.3-2.1c0.4-2.2,0.7-4.4,1.1-6.5c0.4-2.2,0.7-4.3,1.1-6.5
	c0.3-2,0.7-3.9,1-5.9c0.5-4,0.6-7.7,0.5-11.8c-2.7-1.1-4-1-6.8-0.2c-9.5,6.7-14,20.2-16.2,31.2c-0.5,3.2-1,6.3-1.4,9.5
	C197,95,197,95,195,97c-2.7,0.1-5.4,0.2-8.1,0.1c-0.8,0-1.5,0-2.3,0c-1.9,0-3.7-0.1-5.6-0.1c-0.3-1-0.7-2-1-3
	c-0.6,0.4-1.2,0.7-1.8,1.1c-6.5,3.6-11.8,5.1-19.2,3.9c-6.7-2-10.5-5.9-14.1-11.8c-3.9-9.6,0.1-21,3-30.4c1.3-3.8,1.3-3.8,1.1-7.8
	c-2.6-1.3-5.3-2.6-8-4c-0.1,1.2-0.2,2.3-0.2,3.5c-1.8,16-6.7,29.4-18.8,40.5c-3.2,2.3-6.5,4.2-10,6c-1.1,0.6-1.1,0.6-2.3,1.3
	c-8,3.9-18,4.3-26.5,2C79,97.3,77,96.3,75,95c-1.1-0.7-2.2-1.4-3.4-2.1c-4-3-4-3-5.6-4.9c0-0.7,0-1.3,0-2c-0.6,0.7-1.3,1.4-1.9,2.1
	C57.4,94.7,50,98.8,40.6,99.4c-5.2-0.1-8.7-2.1-12.6-5.4c-6.2-7.9-5.7-15.9-4.6-25.5c0.5-3.4,1-6.9,1.6-10.3
	c0.2-1.2,0.4-2.4,0.6-3.6c0.5-2.9,0.9-5.7,1.4-8.6c-1,0-1.9,0-2.9,0.1C21,46,21,46,20,45c-0.4-4.1-0.5-7.8,1.1-11.6
	c2.9-2.2,5.4-1.7,8.9-1.4c0-0.7,0.1-1.3,0.1-2c0.1-0.9,0.1-1.7,0.2-2.6c0.1-0.9,0.1-1.7,0.2-2.6C31,21.7,31.9,18.9,33,16z"/>
<path class="st2" d="M386.8,33.5c4,2.7,5.9,5.9,7.2,10.5c0.9,7.7-0.4,15.1-1.6,22.6c-1.2,7.8-1.2,7.8,0.6,15.4c2.3,0.4,2.3,0.4,5,0
	c12.9-11.4,13.8-27.4,15.5-43.5C414,36,414,36,416,34c2.7-0.2,5.3-0.2,8.1-0.2c0.7,0,1.5,0,2.3,0c5.5,0,5.5,0,6.7,1.2
	c-0.1,7.2-1.4,14.3-2.6,21.3c-1.4,8.3-1.8,16.3-1.4,24.7c2.2,1,2.2,1,5,1c5.1-3.3,7.3-6.8,9.6-12.2c2.8-6.4,2.8-6.4,5.4-7.8
	c3.5,0,5.9,1.5,9,3c0.7,8.8-4.9,17.7-10.2,24.5c-5.8,6-12.5,9.8-20.9,10.2c-5.6-0.3-9.7-1.9-13.8-5.7c-0.7-1-1.3-2-2-3
	c-2.5,1.1-4.6,2.4-6.8,4c-6,3.8-12.2,4.8-19.2,4c-5.4-1.8-8.9-5.3-12-10c-2.9-7.9-1.3-18.8,0.6-26.8c0.7-3.4,0.6-6.7,0.4-10.2
	c-2.1-1.1-2.1-1.1-5-1c-8.6,4.7-13.1,15-16.1,23.8c-1.3,4.8-2.1,9.6-2.8,14.6c-0.8,5.5-0.8,5.5-3,7.7c-2.7,0.1-5.4,0.2-8.1,0.1
	c-0.8,0-1.5,0-2.3,0c-1.9,0-3.7-0.1-5.6-0.1c-0.3-1-0.7-2-1-3c-0.5,0.3-1.1,0.6-1.6,0.8c-1.1,0.5-1.1,0.5-2.1,1.1
	c-1,0.5-1,0.5-2.1,1.1c-5.3,2.4-11.6,3.3-17.1,1.3c-4-2.1-7.2-4.8-10-8.3c-2.9-9.8-2-22.7,1.2-32.2c1.3-4.7,1.7-9.5,2.3-14.4
	c1.1-6.9,1.1-6.9,3.5-9.4c2.7-0.1,5.4-0.1,8.1-0.1c0.8,0,1.5,0,2.3,0c1.9,0,3.8,0,5.6,0c1.1,4.2,0.8,7.4,0,11.7
	c-0.2,1.3-0.5,2.6-0.7,3.9c-0.4,2-0.7,4-1.1,6.1C315,68.9,315,68.9,317,82c2.8,0.1,4.4,0,7-1c2.6-2.7,4.3-5.7,6-9
	c0.3-0.6,0.7-1.2,1-1.9c3.3-6.6,4.2-13.3,5.1-20.5c0.3-2.3,0.6-4.6,0.9-7c0.1-1,0.3-2,0.4-3.1C338,37,338,37,340,34
	c2.8-0.2,5.3-0.3,8.1-0.2c1.1,0,1.1,0,2.3,0c5.5,0.1,5.5,0.1,6.7,1.2c0.1,2.7,0,5.3,0,8c0.7,0,1.3,0,2,0c0.3-1,0.7-2,1-3
	c1.9-1.5,1.9-1.5,4.2-3.1c1.2-0.8,1.2-0.8,2.3-1.5C373,31.7,379.8,30.1,386.8,33.5z"/>
<path class="st3" d="M33,16c2.8,0,5.6,0,8.4-0.1c0.8,0,1.6,0,2.4,0c2,0,4.1,0,6.1,0.1c1,1,1,1,1.2,4.1c-0.2,4.3-1,7.8-2.2,11.9
	c0.7,0,1.4,0,2.2,0c0.9,0,1.8,0,2.8,0c1.4,0,1.4,0,2.8,0C59,32,59,32,60,33c0,1.8-0.2,3.6-0.3,5.4c-0.1,1-0.2,2-0.2,3
	C59,44,59,44,57,46c-2.6,0.2-2.6,0.2-5.6,0.1c-1.5,0-1.5,0-3-0.1c-0.8,0-1.5,0-2.3-0.1c0,0.7-0.1,1.4-0.1,2.1
	c-0.5,6.9-1.4,13.7-2.4,20.5c-1,7-1,7,1.6,13.3c3.2,0,5.3-0.3,7.6-2.6c4.6-6,7.1-11.9,8.6-19.2C63.7,49.9,70.1,42.5,79,37
	c7.9-4.3,15-6.2,24-5c6,1.8,11.9,5.5,15.2,11c2.1,5.3,1,11-1.2,16.1c-3.9,7.4-9.4,10.7-17,13.9c-0.8,0.4-1.6,0.7-2.4,1.1
	c-3,1.1-5.7,1.3-8.9,1.5c-1.1,0.1-2.1,0.1-3.2,0.2c-0.8,0-1.6,0.1-2.4,0.1c4,4.3,6,5.8,11.9,6.4c7.9-0.1,15.5-3.5,21.2-9
	c1.9-2.1,3.3-4,4.9-6.4c1.5,0.5,2.9,1,4.4,1.4c0.8,0.3,1.6,0.5,2.5,0.8C130,70,130,70,132,71c-0.6,4-2.6,6.9-5,10
	c-0.5,0.6-1,1.3-1.5,2c-4.4,5.5-9.3,8.8-15.5,12c-0.8,0.4-1.5,0.8-2.3,1.3c-8,3.9-17.9,4.3-26.5,2C79,97.3,77,96.3,75,95
	c-1.1-0.7-2.2-1.4-3.4-2.1c-4-3-4-3-5.6-4.9c0-0.7,0-1.3,0-2c-0.6,0.7-1.3,1.4-1.9,2.1C57.4,94.7,50,98.8,40.6,99.4
	c-5.2-0.1-8.7-2.1-12.6-5.4c-6.2-7.9-5.7-15.9-4.6-25.5c0.5-3.4,1-6.9,1.6-10.3c0.2-1.2,0.4-2.4,0.6-3.6c0.5-2.9,0.9-5.7,1.4-8.6
	c-1,0-1.9,0-2.9,0.1C21,46,21,46,20,45c-0.4-4.1-0.5-7.8,1.1-11.6c2.9-2.2,5.4-1.7,8.9-1.4c0-0.7,0.1-1.3,0.1-2
	c0.1-0.9,0.1-1.7,0.2-2.6c0.1-0.9,0.1-1.7,0.2-2.6C31,21.7,31.9,18.9,33,16z"/>
<path class="st4" d="M137,20c2.5,2.1,2.5,2.1,4,5c0.2,3.3,0.2,3.3,0,6c0.8,0.3,1.6,0.5,2.5,0.8c4.1,1.4,8.1,3,12.2,4.6
	c0.8,0.3,1.5,0.6,2.3,0.9c7.7,3.1,7.7,3.1,10.1,6.7c0.7,5.7-0.8,10.4-2.5,15.7c-2.1,7.1-3.5,13.8-2.5,21.3c1.1,1.4,1.1,1.4,4.1,1.1
	c4.5-0.7,6.6-3.5,9.4-7c1.7-2.3,3.1-4.6,4.5-7.1c0.3,0,0.7,0,1,0c-0.3,3.7-0.6,7.3-1,11c-0.1,1.1-0.2,2.3-0.3,3.4
	c-1.1,9.8-1.1,9.8-4.5,12.7c-6.5,3.7-11.7,4.6-19.2,3.8c-6.7-2-10.5-6-14.1-11.8c-3.9-9.6,0.1-21,3-30.4c1.3-3.8,1.3-3.8,1.1-7.8
	c-2.6-1.3-5.3-2.6-8-4c-0.1,1.2-0.2,2.3-0.2,3.5c-0.5,4.7-1.6,9.3-2.7,13.9c-0.2,0.7-0.3,1.4-0.5,2.2c-1.3,5.2-1.3,5.2-3.5,7.4
	c-3.6-1.7-7.3-3.3-11-5c0.7-1.8,1.3-3.5,2-5.4c2.4-7.6,4.7-20.2,1-27.6c-0.4-5.3-0.4-8.6,3-13C130.2,19.4,133.5,19.4,137,20z"/>
<path class="st5" d="M33,16c2.8,0,5.6,0,8.4-0.1c0.8,0,1.6,0,2.4,0c2,0,4.1,0,6.1,0.1c1,1,1,1,1.2,4.1c-0.2,4.3-1,7.8-2.2,11.9
	c0.7,0,1.4,0,2.2,0c0.9,0,1.8,0,2.8,0c1.4,0,1.4,0,2.8,0C59,32,59,32,60,33c0,1.8-0.2,3.6-0.3,5.4c-0.1,1-0.2,2-0.2,3
	C59,44,59,44,57,46c-2.6,0.2-2.6,0.2-5.6,0.1c-1.5,0-1.5,0-3-0.1c-0.8,0-1.5,0-2.3-0.1c0,0.7-0.1,1.4-0.1,2.1
	c-0.5,6.9-1.4,13.7-2.4,20.5c-1,7-1,7,1.6,13.3c2.8,0.1,2.8,0.1,6-1c1.7-2,3.1-4,4.5-6.2c1.7-2.1,2.8-2.4,5.5-2.8
	c0.5,2.2,1,4.4,1.5,6.6c0.4,1.9,0.9,3.7,1.5,5.6c0.1,3.4-0.9,4.9-3.2,7.4c-6.6,5.6-13.8,7.9-22.4,7.8c-5.6-0.8-9.4-4.1-12.8-8.5
	c-5.3-9.8-2.3-22.2-0.6-32.7c0.2-1.2,0.4-2.4,0.6-3.6c0.5-2.9,0.9-5.7,1.4-8.6c-1,0-1.9,0-2.9,0.1C21,46,21,46,20,45
	c-0.4-4.1-0.5-7.8,1.1-11.6c2.9-2.2,5.4-1.7,8.9-1.4c0-0.7,0.1-1.3,0.1-2c0.1-0.9,0.1-1.7,0.2-2.6c0.1-0.9,0.1-1.7,0.2-2.6
	C31,21.7,31.9,18.9,33,16z"/>
<path class="st6" d="M419.7,33.8c1.5,0,2.9,0,4.4,0c0.7,0,1.5,0,2.3,0c5.5,0,5.5,0,6.7,1.2c-0.1,7.2-1.4,14.3-2.6,21.3
	c-1.4,8.3-1.8,16.3-1.4,24.7c2.2,1,2.2,1,5,1c5.1-3.3,7.3-6.8,9.6-12.2c2.8-6.4,2.8-6.4,5.4-7.8c3.5,0,5.9,1.5,9,3
	c0.7,8.8-4.9,17.7-10.2,24.5c-5.8,6-12.5,9.8-20.9,10.2c-5.6-0.3-9.7-1.7-13.8-5.7c-1.7-2.3-2.8-4.4-4-7c-0.3-0.7-0.7-1.3-1-2
	c-0.7-9.3,0.8-18.2,2.4-27.3c0.2-1.3,0.5-2.7,0.7-4c0.4-2.4,0.9-4.9,1.3-7.3c0.4-2.4,0.7-4.8,1-7.2C414.2,34.6,415,34.1,419.7,33.8z
	"/>
<path class="st7" d="M307.6,33.9c1.5,0,3,0,4.5,0c0.8,0,1.5,0,2.3,0c1.9,0,3.8,0,5.6,0c1.1,4.2,0.8,7.4,0,11.7
	c-0.2,1.3-0.5,2.6-0.7,3.9c-0.4,2-0.7,4-1.1,6.1C315,68.9,315,68.9,317,82c3.3,0.1,3.3,0.1,7-1c1.5-1.7,2.6-3.3,3.8-5.3
	c1.5-2,3-2.6,5.2-3.7c-0.2,3.1-0.5,6.1-0.8,9.2c-0.1,1.3-0.1,1.3-0.2,2.6c-0.5,5.2-1,8.5-5.1,12.2c-5.4,3-11.9,4-18,3
	c-4.9-1.8-8.7-5-12-9c-2.9-9.8-2-22.7,1.2-32.2c1.3-4.7,1.7-9.5,2.3-14.4C301.9,34.1,301.9,34.1,307.6,33.9z"/>
<path class="st8" d="M433,6c3.5,2.4,4.8,3.8,5.6,7.9c-0.7,3.9-2,6-4.6,9.1c-3.5,2.4-5.4,3-9.6,3c-4.1-1.2-5.3-2.2-7.4-6
	c-0.6-3.4-0.8-5.7,1.1-8.7C422.4,5.8,426.3,5,433,6z"/>
<path class="st9" d="M321,6c2.6,1.5,2.6,1.5,4,4c0.9,6.4,0.9,6.4-1.1,9.8c-2.3,2.9-4.2,5-8,5.4c-3.7,0.1-6.2,0.2-9.5-1.7
	c-2.2-3.9-2.5-7.2-1.4-11.6C308.8,6.2,314.3,4.5,321,6z"/>
<path class="st10" d="M96.8,48.8c0.8,0,1.6,0.1,2.4,0.1c0.9,0.1,0.9,0.1,1.8,0.1c1,3.1,1,3.1,1,7c-3.8,5-9.1,8.1-15,10
	c-3.4,0.2-3.4,0.2-6,0c0.3-6.7,4.1-11.4,8.9-15.7C92.4,48.8,93.8,48.7,96.8,48.8z"/>
</svg>
